<svg viewBox="0 0 80 52" fill="none" xmlns="http://www.w3.org/2000/svg"><path fill-rule="evenodd" clip-rule="evenodd" d="M57.051 42.744V29.581h12.594V20.9H57.052V8.607h13.826v4.771H80V0H43.48v8.606h3.42v34.138h-3.407v8.68h16.855v-8.68H57.05zM38.73 31.988V8.605h3.375V0H25.213v8.605h3.293V29.08c0 8.582-1.029 12.707-7.428 12.707-6.4 0-7.43-4.125-7.43-12.707V8.605h3.269V0H0v8.605h3.35v23.383c0 5.106 0 9.292 2.502 13.05C8.647 49.295 13.722 52 21.078 52c13.019 0 17.651-6.535 17.651-20.012z" fill="#fff"/></svg>