<svg width="198" height="74" fill="none" xmlns="http://www.w3.org/2000/svg"><g clip-path="url(#clip0)"><path d="M88.9 11.86A67.36 67.36 0 0050.28 0a67.37 67.37 0 00-38.63 11.86l-1.86 1.28v.44A81.79 81.79 0 0150.28 3.23a81.78 81.78 0 0140.45 10.35v-.44l-1.83-1.28zM60.43 22.35v-1.54h-5.6c-1.22 0-3.2 0-6.32.11s-5.28.11-6.49.11-3.84-.07-5.26-.11h-1s-3.92.13-5 .13-3.16-.06-5.8-.17v1.54c1.156-.03 2.312.057 3.45.26.365.092.684.312.9.62a7.51 7.51 0 01.33 2.71c.08 2.087.12 4.227.12 6.42v7.42a49.635 49.635 0 01-.23 5.22 11.93 11.93 0 01-.74 3.16 6.461 6.461 0 01-1.57 2.13c-.926.75-2 1.3-3.15 1.61a15.594 15.594 0 01-4.8.67 16.434 16.434 0 01-4.19-.5 8.67 8.67 0 01-3-1.31 6.18 6.18 0 01-2.11-2.74c-.447-1.087-.67-3.363-.67-6.83v-8.9c.06-4.253.1-6.537.12-6.85a5.71 5.71 0 01.37-2.34c.2-.285.5-.484.84-.56a17.128 17.128 0 013.45-.26v-1.54c-2.247.113-4.513.17-6.8.17s-4.723-.057-7.31-.17v1.54c1.17-.031 2.338.056 3.49.26.36.095.676.315.89.62.28.875.4 1.793.35 2.71.06 2.093.09 4.233.09 6.42v10.65c-.1 2.231.13 4.465.68 6.63a8 8 0 002 2.92 10.141 10.141 0 004.15 2.32 20.93 20.93 0 006.44.88c1.959.022 3.911-.23 5.8-.75a11.892 11.892 0 004.28-2.1 9.33 9.33 0 003.05-4.16c.56-1.58.84-4.353.84-8.32v-8.07c0-4.25.08-6.53.09-6.85a6.29 6.29 0 01.36-2.34 1.57 1.57 0 01.85-.56c.856-.17 1.728-.247 2.6-.23 1.137.014 2.272.09 3.4.23.358.1.672.319.89.62a7.81 7.81 0 01.35 2.71c0 2.09.07 4.23.07 6.42v11.15c-.06 4.227-.1 6.51-.12 6.85.03.796-.093 1.59-.36 2.34a1.56 1.56 0 01-.86.56c-1.142.203-2.3.29-3.46.26v1.54c3.493-.107 6.16-.163 8-.17 2 0 4.033.057 6.1.17v-1.54a17.32 17.32 0 01-3.55-.29 1.66 1.66 0 01-.91-.64 7.679 7.679 0 01-.32-2.72c-.067-2.08-.1-4.21-.1-6.39v-4.84a60.8 60.8 0 013.52-.1 36.981 36.981 0 016.23.31 1.331 1.331 0 01.91.51c.207.945.337 1.904.39 2.87l.17 1.54h1.51l-.17-5.91.17-5.54h-1.51l-.2 1.49a7.249 7.249 0 01-.44 2 1.46 1.46 0 01-.91.4 30.2 30.2 0 01-4.89.31c-1.39 0-3 0-4.78-.07v-5.31l.12-5.51c0-.75.1-1.56.19-2.43 1.66-.191 3.33-.288 5-.29a41.218 41.218 0 014.29.2 14.71 14.71 0 013.1.64c.31 1.48.51 2.98.6 4.49h1.52c.085-1.972.272-3.938.56-5.89h-.01z" fill="#F37021"/><path d="M94.41 25.51a5.67 5.67 0 01.38-2.34c.202-.285.5-.487.84-.57a17.607 17.607 0 013.46-.25v-1.54c-4.22.113-6.553.17-7 .17-1.293 0-3.667-.057-7.12-.17v1.54a17.387 17.387 0 013.47.25c.36.102.674.325.89.63.276.876.395 1.793.35 2.71.08 2.087.12 4.227.12 6.42v3.35c-2.09.12-4.88.17-8.37.17-4.55 0-8.41 0-11.58-.17v-3.35c.06-4.253.1-6.537.12-6.85a6.24 6.24 0 01.36-2.34 1.63 1.63 0 01.85-.57 17.562 17.562 0 013.47-.25v-1.54l-6.8.17-7.09-.17h-.29v1.54a17.987 17.987 0 013.43.25c.357.107.67.329.89.63.276.875.391 1.794.34 2.71.053 2.087.08 4.223.08 6.41v11.16c-.06 4.227-.1 6.51-.12 6.85a6.29 6.29 0 01-.3 2.34 1.61 1.61 0 01-.87.56 17.01 17.01 0 01-3.45.26v1.54c2.47-.11 5-.17 7.48-.17 2.3 0 4.533.057 6.7.17v-1.54a17.24 17.24 0 01-3.52-.29 1.66 1.66 0 01-.9-.63 7.892 7.892 0 01-.35-2.72c-.06-2.047-.09-4.16-.09-6.34v-5.49c3.92-.11 7.16-.17 9.7-.17 2.333 0 5.75.057 10.25.17v5.49c-.06 4.207-.1 6.483-.12 6.83a5.47 5.47 0 01-.36 2.33 1.56 1.56 0 01-.86.56c-1.152.204-2.32.291-3.49.26v1.54c2.26-.11 4.43-.17 6.54-.17 2.11 0 4.52.06 7.63.17v-1.54a17.276 17.276 0 01-3.44-.29 1.6 1.6 0 01-.9-.64 7.84 7.84 0 01-.33-2.72c-.07-2.07-.12-4.2-.12-6.39V32.35c.06-4.24.11-6.52.12-6.84zm24.84 25.8l-.77 1.74c-.784.51-1.599.97-2.44 1.38a14.76 14.76 0 01-2.59.86 13.31 13.31 0 01-3.07.35 12.35 12.35 0 01-5.77-1.33 9.33 9.33 0 01-4-4 12.82 12.82 0 01-1.43-6.18 15.408 15.408 0 01.76-5 9.4 9.4 0 011.73-3.29 11.359 11.359 0 012.12-1.75 14.906 14.906 0 012.91-1.58 10.447 10.447 0 014.13-.8 9.751 9.751 0 014.96 1.23 7.54 7.54 0 013.2 3.35 11.004 11.004 0 011 4.8c-.033.55-.1 1.098-.2 1.64a26.447 26.447 0 01-3.1.44c-1.74.13-3.47.19-5.21.19h-7.69a12.143 12.143 0 001.2 5.6 7.13 7.13 0 003.16 3.15 9.112 9.112 0 004.18 1 9.322 9.322 0 002.93-.48 19.196 19.196 0 003.61-1.75l.38.43zm-15.46-9.86c.45.05 1.3.1 2.56.15 2.4.08 4 .12 4.94.12 2.14 0 3.55-.04 4.23-.12v-.89c0-2.54-.52-4.41-1.54-5.6a5.197 5.197 0 00-4.13-1.78 5.493 5.493 0 00-4.39 1.95c-1.113 1.3-1.67 3.357-1.67 6.17zm20.51-2.91l-1.28-.31v-3.14a26.487 26.487 0 015-2.7 10.399 10.399 0 013.36-.51 9.56 9.56 0 014.64 1 6.5 6.5 0 012.8 3 8.87 8.87 0 01.63 3.69l-.12 4.41v7.19a5.147 5.147 0 00.19 1.67 1 1 0 00.46.53c.318.126.658.19 1 .19l1.57.15v1.37c-1.32-.11-2.48-.17-3.47-.17-.99 0-2.26.06-3.87.17l.13-4.25c-3.28 2.48-5.227 3.877-5.84 4.19a5.089 5.089 0 01-2.32.47 6.29 6.29 0 01-4.54-1.56 5.418 5.418 0 01-1.63-4.13 8 8 0 01.56-3 6.816 6.816 0 011.37-2.19 5.99 5.99 0 011.61-1.19 26.412 26.412 0 014.55-1.4 53.818 53.818 0 016.24-1.11 8.645 8.645 0 00-.56-3.57 4.726 4.726 0 00-1.95-2.1 6.532 6.532 0 00-3.36-.82 7.232 7.232 0 00-2.49.39 4.004 4.004 0 00-1.32.65l-.43.87c-.44.9-.72 1.66-.93 2.21zm11.08 3.78c-1.808.293-3.598.69-5.36 1.19a9.937 9.937 0 00-3.13 1.35 3.177 3.177 0 00-1 1.23 5.659 5.659 0 00-.63 2.67 3.791 3.791 0 001 2.79 3.691 3.691 0 002.75 1 6.241 6.241 0 003.2-.93 12.886 12.886 0 003.15-2.78l.02-6.52zm7.64 12.74v-1.37h2.27c.281.008.559-.054.81-.18.172-.096.316-.233.42-.4a4.264 4.264 0 00.32-1.71c0-.21.07-2.52.16-6.92v-10c0-2.667-.04-5.44-.12-8.32a16.119 16.119 0 00-.26-3.23.67.67 0 00-.39-.33 15.308 15.308 0 00-3.35-.17v-1.45a28.233 28.233 0 007.58-1.69 1.16 1.16 0 01.48-.15.329.329 0 01.26.11.4.4 0 01.1.3c.01.16.01.32 0 .48v.8c-.09 2.88-.13 5.32-.15 7.35v16.27c.067 4.18.107 6.44.12 6.78a4.434 4.434 0 00.3 1.75c.061.15.161.282.29.38.173.123.371.209.58.25.11 0 1 0 2.69.08v1.37c-2.18-.11-4.11-.17-5.76-.17-1.65 0-3.77.06-6.35.17zm12.39-18.91v-1a37.671 37.671 0 003.69-1.65v-7.34a20.203 20.203 0 004.08-1.86l.57.49c-.17 1.33-.36 4.28-.57 8.82h4.79a18.707 18.707 0 001.89-.1l.17.17-.51 2.25h-6.34l-.12 9.82a36.989 36.989 0 000 4.29c.068.434.224.85.46 1.22.226.34.527.624.88.83a5.206 5.206 0 001.84.48c.531.005 1.062-.022 1.59-.08a7.924 7.924 0 001.55-.43l.29.94a52.43 52.43 0 00-2.19 1.86 7.77 7.77 0 01-1.71.45c-.607.076-1.218.113-1.83.11a5.998 5.998 0 01-2-.29 5.059 5.059 0 01-1.38-.81 4.001 4.001 0 01-1-1.32 6.612 6.612 0 01-.54-2.51c0-1.09.05-2.28.1-3.59V36.06h-1c-.81-.03-1.72.01-2.71.09z" fill="#0F5CB1"/><path d="M169.79 55.06v-1.37h2.27a1.72 1.72 0 00.81-.18c.17-.098.314-.235.42-.4a4.14 4.14 0 00.31-1.71c0-.207.057-2.517.17-6.93v-12.5c0-2.68 0-5.46-.12-8.32a14.77 14.77 0 00-.27-3.23.637.637 0 00-.38-.34 16.146 16.146 0 00-3.35-.17v-1.42a27.28 27.28 0 007.57-1.69c.148-.08.312-.128.48-.14a.31.31 0 01.27.11.448.448 0 01.1.3c.01.16.01.32 0 .48v.8c-.07 2.88-.12 5.33-.13 7.35l-.15 3.77v7c.23-.18.86-.73 1.91-1.64 1.05-.91 1.66-1.46 1.85-1.64a4.59 4.59 0 01.72-.58 7.088 7.088 0 011.38-.48 9.066 9.066 0 012.43-.34 8.84 8.84 0 014.2 1 6 6 0 012.76 2.64c.602 1.525.858 3.164.75 4.8v4.25l.06 3.33c0 2.07.06 3.24.06 3.5a4.764 4.764 0 00.29 1.68.942.942 0 00.3.4c.171.124.37.204.58.23.1 0 .94 0 2.52.08v1.37c-1.83-.08-3.16-.12-4-.12-.84 0-2.16 0-4.37.12.227-2.38.34-4.697.34-6.95v-6a14.18 14.18 0 00-.41-4 4.73 4.73 0 00-1.67-2.21 5.4 5.4 0 00-3.37-1 6.676 6.676 0 00-2.36.38 5.868 5.868 0 00-1.91 1.15 8.778 8.778 0 00-1.47 1.67 2.568 2.568 0 00-.39 1 21.22 21.22 0 00-.09 2.47v2.83c.06 4.16.1 6.42.12 6.75a5.17 5.17 0 00.29 1.76c.055.16.156.298.29.4.171.124.37.204.58.23.11 0 1 0 2.69.08V55c-2.86-.11-4.83-.17-5.93-.17-1.1 0-3.01.12-6.15.23zM6.86 65.28v4.4c0 1.34.51 2 1.39 2 .88 0 1.41-.64 1.41-2v-4.4h1.72v4.3c0 2.37-1.19 3.49-3.19 3.49s-3.06-1.08-3.06-3.51v-4.28h1.73zm6.7 7.67v-7.67h2l1.59 2.81c.47.85.888 1.728 1.25 2.63a29.531 29.531 0 01-.14-3.21v-2.23h1.59v7.67h-1.77l-1.63-3a25.03 25.03 0 01-1.33-2.7c.06 1 .08 2.1.08 3.35v2.31l-1.64.04zm10.82-7.67v7.67h-1.72v-7.67h1.72zm4.55 7.67l-2.45-7.67h1.89l.93 3.25c.26.92.5 1.78.68 2.74a37 37 0 01.7-2.71l1-3.28h1.84l-2.58 7.67h-2.01zm10.5-3.24h-2.81v1.82h3.17v1.42H34.9v-7.67h4.7v1.42h-3v1.6h2.81l.02 1.41zm2.75-4.27a15.196 15.196 0 012.31-.16 3.85 3.85 0 012.47.61 2 2 0 01.71 1.61 2 2 0 01-1.35 1.88 1.93 1.93 0 011 1.42 21.6 21.6 0 00.62 2.17h-1.75a9.117 9.117 0 01-.52-1.74c-.22-1-.55-1.22-1.26-1.23h-.51v3h-1.72v-7.56zm1.72 3.3h.68c.86 0 1.37-.43 1.37-1.1 0-.67-.48-1.06-1.27-1.06a3.554 3.554 0 00-.78.06v2.1zm5.79 2.54a4.33 4.33 0 001.92.48c.79 0 1.21-.33 1.21-.84s-.37-.75-1.28-1.07c-1.27-.45-2.11-1.15-2.11-2.27 0-1.31 1.1-2.3 2.89-2.3a4.537 4.537 0 011.95.39l-.39 1.39a3.49 3.49 0 00-1.58-.37c-.75 0-1.12.36-1.12.74s.43.71 1.42 1.08c1.35.5 2 1.21 2 2.29 0 1.28-1 2.38-3.08 2.38a4.93 4.93 0 01-2.16-.48l.33-1.42zm8.35-6v7.67h-1.72v-7.67h1.72zm3.69 1.46h-2.07v-1.46h5.87v1.46h-2.08v6.21h-1.72v-6.21zm7.24 6.21v-3.14l-2.41-4.53h2l.77 1.85c.24.55.41 1 .59 1.46.17-.48.36-.92.58-1.46l.77-1.85h1.94l-2.52 4.47v3.2h-1.72zm14.82-3.78c0 2.53-1.5 4-3.75 4s-3.59-1.72-3.59-3.91a3.71 3.71 0 013.72-4 3.57 3.57 0 013.62 3.91zm-5.57.06c0 1.52.71 2.57 1.86 2.57 1.15 0 1.84-1.11 1.84-2.6s-.65-2.57-1.84-2.57-1.86 1.14-1.86 2.6zm7.39-3.95h4.66v1.42h-2.93v1.76h2.74v1.41h-2.74v3.08h-1.73v-7.67zm10.76 0h4.66v1.42h-2.94v1.76h2.7v1.41h-2.7v3.08h-1.72v-7.67zm6.64 0h1.72v6.21h3v1.46h-4.76l.04-7.67zm13.02 3.89c0 2.53-1.51 4-3.76 4s-3.59-1.72-3.59-3.91a3.712 3.712 0 012.227-3.696 3.71 3.71 0 011.493-.304 3.577 3.577 0 013.455 2.427c.162.476.221.982.175 1.483zm-5.52.09c0 1.51.7 2.57 1.86 2.57 1.16 0 1.83-1.11 1.83-2.6s-.64-2.57-1.83-2.57-1.86 1.11-1.86 2.57v.03zm7.55-3.82c.761-.112 1.53-.165 2.3-.16a3.819 3.819 0 012.47.61 1.915 1.915 0 01.71 1.61 2.002 2.002 0 01-1.34 1.88 1.934 1.934 0 011 1.42c.167.733.37 1.457.61 2.17h-1.77a10.914 10.914 0 01-.52-1.78c-.21-1-.54-1.22-1.26-1.23h-.47v3h-1.71l-.02-7.52zm1.71 3.3h.68c.86 0 1.38-.43 1.38-1.1 0-.67-.48-1.06-1.27-1.06a3.661 3.661 0 00-.79.06v2.1zm8.02-3.46v7.67h-1.72v-7.67h1.72zm2.71.17c.771-.115 1.55-.172 2.33-.17a4.999 4.999 0 013.14.82 3.41 3.41 0 011.29 2.89A3.936 3.936 0 01136 72.1a5.51 5.51 0 01-3.54 1c-.668.01-1.337-.027-2-.11l.04-7.54zm1.73 6.25c.2.017.4.017.6 0a2.382 2.382 0 002.6-2.68 2.199 2.199 0 00-2.42-2.43 3.99 3.99 0 00-.78.06v5.05zm8.49-.72l-.55 2h-1.78l2.33-7.67h2.26l2.39 7.67h-1.88l-.59-2h-2.18zm1.94-1.29l-.48-1.63c-.14-.45-.27-1-.39-1.48-.11.46-.23 1-.35 1.48l-.45 1.63h1.67zm10.23-4.41v3h2.84v-3h1.72v7.67h-1.72v-3.21h-2.84v3.21h-1.73v-7.67h1.73zm11.51 4.43h-2.81v1.82h3.14v1.42h-4.86v-7.67h4.7v1.42h-3v1.6h2.81l.02 1.41zm4.53 1.27l-.54 2h-1.78l2.32-7.67h2.27l2.38 7.67h-1.87l-.59-2h-2.19zm1.94-1.3l-.47-1.62c-.14-.46-.27-1-.39-1.48-.11.45-.23 1-.35 1.48l-.46 1.62h1.67zm4.29-4.4h1.72v6.21h3v1.46h-4.75l.03-7.67zm6.75 1.46h-2.06v-1.46h5.88v1.46h-2.09v6.21h-1.73v-6.21zm7.14-1.46v3h2.84v-3h1.72v7.67h-1.72v-3.21h-2.84v3.21h-1.72v-7.67h1.72z" fill="#0F5CB1"/></g><defs><clipPath id="clip0"><path fill="#fff" d="M0 0h197.6v73.21H0z"/></clipPath></defs></svg>